<svg width="789" height="283" viewBox="0 0 789 283" fill="none" xmlns="http://www.w3.org/2000/svg">
<circle cx="456.5" cy="141.5" r="141.5" fill="#D9D9D9"/>
<path d="M528.338 195.923V251.072C547.727 237.54 563.366 218.437 573.328 195.923H528.338Z" fill="#257FD2"/>
<path d="M528.338 155.287H585.678C586.116 150.767 586.39 146.134 586.39 141.501C586.39 95.0574 563.301 54.2073 528.338 30.477V155.287Z" fill="#257FD2"/>
<path d="M477.721 196.094H377.01V158.751C381.94 148.693 388.145 137.357 395.512 124.687C402.936 112.017 411.19 99.0142 420.275 85.6776C429.36 72.341 438.943 59.2823 449.081 46.5013C459.052 33.8871 469.023 22.4955 478.995 12.3263C471.35 10.9371 463.428 10.1591 455.396 10.1591C383.491 10.1035 325.159 68.6179 325.159 140.747C325.159 212.875 383.491 271.39 455.396 271.39C462.985 271.39 470.464 270.723 477.721 269.445V196.038V196.094Z" fill="#257FD2"/>
<path d="M422.395 153.836H480.446V66.759C470.842 79.4204 460.63 93.1568 449.749 108.088C438.929 122.959 429.811 138.248 422.395 153.836Z" fill="#257FD2"/>
<mask id="path-6-outside-1_5_2" maskUnits="userSpaceOnUse" x="9" y="85" width="778" height="178" fill="black">
<rect fill="white" x="9" y="85" width="778" height="178"/>
<path d="M28.224 111.336V150.48H70.896V163.08H28.224V203.4H75.936V216H12.936V98.736H75.936V111.336H28.224ZM133.341 201.888L161.901 123.936H178.197L142.077 216H124.269L88.1488 123.936H104.613L133.341 201.888ZM277.241 166.44C277.241 169.352 277.073 172.432 276.737 175.68H203.153C203.713 184.752 206.793 191.864 212.393 197.016C218.105 202.056 224.993 204.576 233.057 204.576C239.665 204.576 245.153 203.064 249.521 200.04C254.001 196.904 257.137 192.76 258.929 187.608H275.393C272.929 196.456 268.001 203.68 260.609 209.28C253.217 214.768 244.033 217.512 233.057 217.512C224.321 217.512 216.481 215.552 209.537 211.632C202.705 207.712 197.329 202.168 193.409 195C189.489 187.72 187.529 179.32 187.529 169.8C187.529 160.28 189.433 151.936 193.241 144.768C197.049 137.6 202.369 132.112 209.201 128.304C216.145 124.384 224.097 122.424 233.057 122.424C241.793 122.424 249.521 124.328 256.241 128.136C262.961 131.944 268.113 137.208 271.697 143.928C275.393 150.536 277.241 158.04 277.241 166.44ZM261.449 163.248C261.449 157.424 260.161 152.44 257.585 148.296C255.009 144.04 251.481 140.848 247.001 138.72C242.633 136.48 237.761 135.36 232.385 135.36C224.657 135.36 218.049 137.824 212.561 142.752C207.185 147.68 204.105 154.512 203.321 163.248H261.449ZM312.708 138.888C315.396 133.624 319.204 129.536 324.132 126.624C329.172 123.712 335.276 122.256 342.444 122.256V138.048H338.412C321.276 138.048 312.708 147.344 312.708 165.936V216H297.42V123.936H312.708V138.888ZM439.388 123.936L383.948 259.344H368.156L386.3 214.992L349.172 123.936H366.14L395.036 198.528L423.596 123.936H439.388ZM514.833 111.336V150.48H557.505V163.08H514.833V203.4H562.545V216H499.545V98.736H562.545V111.336H514.833ZM579.966 169.632C579.966 160.224 581.87 151.992 585.678 144.936C589.486 137.768 594.694 132.224 601.302 128.304C608.022 124.384 615.526 122.424 623.814 122.424C630.982 122.424 637.646 124.104 643.806 127.464C649.966 130.712 654.67 135.024 657.918 140.4V91.68H673.374V216H657.918V198.696C654.894 204.184 650.414 208.72 644.478 212.304C638.542 215.776 631.598 217.512 623.646 217.512C615.47 217.512 608.022 215.496 601.302 211.464C594.694 207.432 589.486 201.776 585.678 194.496C581.87 187.216 579.966 178.928 579.966 169.632ZM657.918 169.8C657.918 162.856 656.518 156.808 653.718 151.656C650.918 146.504 647.11 142.584 642.294 139.896C637.59 137.096 632.382 135.696 626.67 135.696C620.958 135.696 615.75 137.04 611.046 139.728C606.342 142.416 602.59 146.336 599.79 151.488C596.99 156.64 595.59 162.688 595.59 169.632C595.59 176.688 596.99 182.848 599.79 188.112C602.59 193.264 606.342 197.24 611.046 200.04C615.75 202.728 620.958 204.072 626.67 204.072C632.382 204.072 637.59 202.728 642.294 200.04C647.11 197.24 650.918 193.264 653.718 188.112C656.518 182.848 657.918 176.744 657.918 169.8ZM707.105 108.984C704.193 108.984 701.729 107.976 699.713 105.96C697.697 103.944 696.689 101.48 696.689 98.568C696.689 95.656 697.697 93.192 699.713 91.176C701.729 89.16 704.193 88.152 707.105 88.152C709.905 88.152 712.257 89.16 714.161 91.176C716.177 93.192 717.185 95.656 717.185 98.568C717.185 101.48 716.177 103.944 714.161 105.96C712.257 107.976 709.905 108.984 707.105 108.984ZM714.497 123.936V216H699.209V123.936H714.497ZM759.201 136.536V190.8C759.201 195.28 760.153 198.472 762.057 200.376C763.961 202.168 767.265 203.064 771.969 203.064H783.225V216H769.449C760.937 216 754.553 214.04 750.297 210.12C746.041 206.2 743.913 199.76 743.913 190.8V136.536H731.985V123.936H743.913V100.752H759.201V123.936H783.225V136.536H759.201Z"/>
</mask>
<path d="M28.224 111.336V150.48H70.896V163.08H28.224V203.4H75.936V216H12.936V98.736H75.936V111.336H28.224ZM133.341 201.888L161.901 123.936H178.197L142.077 216H124.269L88.1488 123.936H104.613L133.341 201.888ZM277.241 166.44C277.241 169.352 277.073 172.432 276.737 175.68H203.153C203.713 184.752 206.793 191.864 212.393 197.016C218.105 202.056 224.993 204.576 233.057 204.576C239.665 204.576 245.153 203.064 249.521 200.04C254.001 196.904 257.137 192.76 258.929 187.608H275.393C272.929 196.456 268.001 203.68 260.609 209.28C253.217 214.768 244.033 217.512 233.057 217.512C224.321 217.512 216.481 215.552 209.537 211.632C202.705 207.712 197.329 202.168 193.409 195C189.489 187.72 187.529 179.32 187.529 169.8C187.529 160.28 189.433 151.936 193.241 144.768C197.049 137.6 202.369 132.112 209.201 128.304C216.145 124.384 224.097 122.424 233.057 122.424C241.793 122.424 249.521 124.328 256.241 128.136C262.961 131.944 268.113 137.208 271.697 143.928C275.393 150.536 277.241 158.04 277.241 166.44ZM261.449 163.248C261.449 157.424 260.161 152.44 257.585 148.296C255.009 144.04 251.481 140.848 247.001 138.72C242.633 136.48 237.761 135.36 232.385 135.36C224.657 135.36 218.049 137.824 212.561 142.752C207.185 147.68 204.105 154.512 203.321 163.248H261.449ZM312.708 138.888C315.396 133.624 319.204 129.536 324.132 126.624C329.172 123.712 335.276 122.256 342.444 122.256V138.048H338.412C321.276 138.048 312.708 147.344 312.708 165.936V216H297.42V123.936H312.708V138.888ZM439.388 123.936L383.948 259.344H368.156L386.3 214.992L349.172 123.936H366.14L395.036 198.528L423.596 123.936H439.388ZM514.833 111.336V150.48H557.505V163.08H514.833V203.4H562.545V216H499.545V98.736H562.545V111.336H514.833ZM579.966 169.632C579.966 160.224 581.87 151.992 585.678 144.936C589.486 137.768 594.694 132.224 601.302 128.304C608.022 124.384 615.526 122.424 623.814 122.424C630.982 122.424 637.646 124.104 643.806 127.464C649.966 130.712 654.67 135.024 657.918 140.4V91.68H673.374V216H657.918V198.696C654.894 204.184 650.414 208.72 644.478 212.304C638.542 215.776 631.598 217.512 623.646 217.512C615.47 217.512 608.022 215.496 601.302 211.464C594.694 207.432 589.486 201.776 585.678 194.496C581.87 187.216 579.966 178.928 579.966 169.632ZM657.918 169.8C657.918 162.856 656.518 156.808 653.718 151.656C650.918 146.504 647.11 142.584 642.294 139.896C637.59 137.096 632.382 135.696 626.67 135.696C620.958 135.696 615.75 137.04 611.046 139.728C606.342 142.416 602.59 146.336 599.79 151.488C596.99 156.64 595.59 162.688 595.59 169.632C595.59 176.688 596.99 182.848 599.79 188.112C602.59 193.264 606.342 197.24 611.046 200.04C615.75 202.728 620.958 204.072 626.67 204.072C632.382 204.072 637.59 202.728 642.294 200.04C647.11 197.24 650.918 193.264 653.718 188.112C656.518 182.848 657.918 176.744 657.918 169.8ZM707.105 108.984C704.193 108.984 701.729 107.976 699.713 105.96C697.697 103.944 696.689 101.48 696.689 98.568C696.689 95.656 697.697 93.192 699.713 91.176C701.729 89.16 704.193 88.152 707.105 88.152C709.905 88.152 712.257 89.16 714.161 91.176C716.177 93.192 717.185 95.656 717.185 98.568C717.185 101.48 716.177 103.944 714.161 105.96C712.257 107.976 709.905 108.984 707.105 108.984ZM714.497 123.936V216H699.209V123.936H714.497ZM759.201 136.536V190.8C759.201 195.28 760.153 198.472 762.057 200.376C763.961 202.168 767.265 203.064 771.969 203.064H783.225V216H769.449C760.937 216 754.553 214.04 750.297 210.12C746.041 206.2 743.913 199.76 743.913 190.8V136.536H731.985V123.936H743.913V100.752H759.201V123.936H783.225V136.536H759.201Z" fill="#222222"/>
<path d="M28.224 111.336V108.336H25.224V111.336H28.224ZM28.224 150.48H25.224V153.48H28.224V150.48ZM70.896 150.48H73.896V147.48H70.896V150.48ZM70.896 163.08V166.08H73.896V163.08H70.896ZM28.224 163.08V160.08H25.224V163.08H28.224ZM28.224 203.4H25.224V206.4H28.224V203.4ZM75.936 203.4H78.936V200.4H75.936V203.4ZM75.936 216V219H78.936V216H75.936ZM12.936 216H9.936V219H12.936V216ZM12.936 98.736V95.736H9.936V98.736H12.936ZM75.936 98.736H78.936V95.736H75.936V98.736ZM75.936 111.336V114.336H78.936V111.336H75.936ZM25.224 111.336V150.48H31.224V111.336H25.224ZM28.224 153.48H70.896V147.48H28.224V153.48ZM67.896 150.48V163.08H73.896V150.48H67.896ZM70.896 160.08H28.224V166.08H70.896V160.08ZM25.224 163.08V203.4H31.224V163.08H25.224ZM28.224 206.4H75.936V200.4H28.224V206.4ZM72.936 203.4V216H78.936V203.4H72.936ZM75.936 213H12.936V219H75.936V213ZM15.936 216V98.736H9.936V216H15.936ZM12.936 101.736H75.936V95.736H12.936V101.736ZM72.936 98.736V111.336H78.936V98.736H72.936ZM75.936 108.336H28.224V114.336H75.936V108.336ZM133.341 201.888L130.526 202.925L133.349 210.586L136.158 202.92L133.341 201.888ZM161.901 123.936V120.936H159.805L159.084 122.904L161.901 123.936ZM178.197 123.936L180.99 125.032L182.596 120.936H178.197V123.936ZM142.077 216V219H144.122L144.87 217.096L142.077 216ZM124.269 216L121.476 217.096L122.223 219H124.269V216ZM88.1488 123.936V120.936H83.7492L85.3561 125.032L88.1488 123.936ZM104.613 123.936L107.428 122.899L106.704 120.936H104.613V123.936ZM136.158 202.92L164.718 124.968L159.084 122.904L130.524 200.856L136.158 202.92ZM161.901 126.936H178.197V120.936H161.901V126.936ZM175.404 122.84L139.284 214.904L144.87 217.096L180.99 125.032L175.404 122.84ZM142.077 213H124.269V219H142.077V213ZM127.062 214.904L90.9416 122.84L85.3561 125.032L121.476 217.096L127.062 214.904ZM88.1488 126.936H104.613V120.936H88.1488V126.936ZM101.798 124.973L130.526 202.925L136.156 200.851L107.428 122.899L101.798 124.973ZM276.737 175.68V178.68H279.442L279.721 175.989L276.737 175.68ZM203.153 175.68V172.68H199.962L200.158 175.865L203.153 175.68ZM212.393 197.016L210.362 199.224L210.384 199.245L210.408 199.266L212.393 197.016ZM249.521 200.04L251.228 202.507L251.235 202.502L251.241 202.498L249.521 200.04ZM258.929 187.608V184.608H256.796L256.095 186.622L258.929 187.608ZM275.393 187.608L278.283 188.413L279.342 184.608H275.393V187.608ZM260.609 209.28L262.397 211.689L262.409 211.68L262.42 211.671L260.609 209.28ZM209.537 211.632L208.044 214.234L208.053 214.239L208.062 214.244L209.537 211.632ZM193.409 195L190.767 196.422L190.772 196.431L190.777 196.439L193.409 195ZM193.241 144.768L195.89 146.175L193.241 144.768ZM209.201 128.304L210.661 130.924L210.668 130.92L210.675 130.916L209.201 128.304ZM256.241 128.136L254.762 130.746L256.241 128.136ZM271.697 143.928L269.05 145.34L269.064 145.366L269.078 145.392L271.697 143.928ZM261.449 163.248V166.248H264.449V163.248H261.449ZM257.585 148.296L255.018 149.849L255.027 149.865L255.037 149.88L257.585 148.296ZM247.001 138.72L245.632 141.389L245.672 141.41L245.714 141.43L247.001 138.72ZM212.561 142.752L210.556 140.52L210.545 140.53L210.534 140.541L212.561 142.752ZM203.321 163.248L200.333 162.98L200.039 166.248H203.321V163.248ZM274.241 166.44C274.241 169.237 274.079 172.214 273.753 175.371L279.721 175.989C280.066 172.65 280.241 169.467 280.241 166.44H274.241ZM276.737 172.68H203.153V178.68H276.737V172.68ZM200.158 175.865C200.756 185.55 204.083 193.448 210.362 199.224L214.424 194.808C209.502 190.28 206.669 183.954 206.147 175.495L200.158 175.865ZM210.408 199.266C216.702 204.819 224.308 207.576 233.057 207.576V201.576C225.677 201.576 219.507 199.293 214.378 194.766L210.408 199.266ZM233.057 207.576C240.125 207.576 246.248 205.954 251.228 202.507L247.813 197.573C244.057 200.174 239.204 201.576 233.057 201.576V207.576ZM251.241 202.498C256.236 199.001 259.762 194.343 261.762 188.594L256.095 186.622C254.511 191.177 251.765 194.807 247.8 197.582L251.241 202.498ZM258.929 190.608H275.393V184.608H258.929V190.608ZM272.503 186.803C270.217 195.012 265.671 201.681 258.797 206.889L262.42 211.671C270.33 205.679 275.641 197.9 278.283 188.413L272.503 186.803ZM258.82 206.871C252.039 211.906 243.516 214.512 233.057 214.512V220.512C244.549 220.512 254.394 217.63 262.397 211.689L258.82 206.871ZM233.057 214.512C224.787 214.512 217.463 212.662 211.011 209.02L208.062 214.244C215.498 218.442 223.855 220.512 233.057 220.512V214.512ZM211.03 209.03C204.696 205.396 199.706 200.262 196.041 193.561L190.777 196.439C194.952 204.074 200.714 210.028 208.044 214.234L211.03 209.03ZM196.05 193.578C192.399 186.797 190.529 178.899 190.529 169.8H184.529C184.529 179.741 186.578 188.643 190.767 196.422L196.05 193.578ZM190.529 169.8C190.529 160.686 192.349 152.841 195.89 146.175L190.591 143.361C186.516 151.031 184.529 159.874 184.529 169.8H190.529ZM195.89 146.175C199.438 139.498 204.354 134.44 210.661 130.924L207.74 125.684C200.384 129.784 194.66 135.702 190.591 143.361L195.89 146.175ZM210.675 130.916C217.116 127.281 224.548 125.424 233.057 125.424V119.424C223.645 119.424 215.173 121.487 207.726 125.692L210.675 130.916ZM233.057 125.424C241.343 125.424 248.549 127.226 254.762 130.746L257.72 125.526C250.492 121.43 242.242 119.424 233.057 119.424V125.424ZM254.762 130.746C260.994 134.278 265.737 139.129 269.05 145.34L274.344 142.516C270.488 135.287 264.927 129.61 257.72 125.526L254.762 130.746ZM269.078 145.392C272.498 151.505 274.241 158.495 274.241 166.44H280.241C280.241 157.585 278.288 149.567 274.315 142.464L269.078 145.392ZM264.449 163.248C264.449 156.974 263.057 151.417 260.133 146.712L255.037 149.88C257.264 153.463 258.449 157.874 258.449 163.248H264.449ZM260.151 146.743C257.272 141.986 253.3 138.391 248.288 136.01L245.714 141.43C249.661 143.305 252.745 146.094 255.018 149.849L260.151 146.743ZM248.37 136.051C243.539 133.573 238.191 132.36 232.385 132.36V138.36C237.331 138.36 241.727 139.387 245.632 141.389L248.37 136.051ZM232.385 132.36C223.955 132.36 216.623 135.072 210.556 140.52L214.565 144.984C219.474 140.576 225.358 138.36 232.385 138.36V132.36ZM210.534 140.541C204.499 146.072 201.169 153.658 200.333 162.98L206.309 163.516C207.04 155.366 209.871 149.288 214.588 144.963L210.534 140.541ZM203.321 166.248H261.449V160.248H203.321V166.248ZM312.708 138.888H309.708L315.38 140.252L312.708 138.888ZM324.132 126.624L322.632 124.026L322.619 124.034L322.606 124.041L324.132 126.624ZM342.444 122.256H345.444V119.256H342.444V122.256ZM342.444 138.048V141.048H345.444V138.048H342.444ZM312.708 216V219H315.708V216H312.708ZM297.42 216H294.42V219H297.42V216ZM297.42 123.936V120.936H294.42V123.936H297.42ZM312.708 123.936H315.708V120.936H312.708V123.936ZM315.38 140.252C317.818 135.477 321.237 131.82 325.659 129.207L322.606 124.041C317.172 127.252 312.974 131.771 310.037 137.524L315.38 140.252ZM325.633 129.222C330.122 126.628 335.682 125.256 342.444 125.256V119.256C334.871 119.256 328.222 120.796 322.632 124.026L325.633 129.222ZM339.444 122.256V138.048H345.444V122.256H339.444ZM342.444 135.048H338.412V141.048H342.444V135.048ZM338.412 135.048C329.316 135.048 321.961 137.527 316.928 142.987C311.938 148.401 309.708 156.235 309.708 165.936H315.708C315.708 157.044 317.762 150.935 321.34 147.053C324.876 143.217 330.372 141.048 338.412 141.048V135.048ZM309.708 165.936V216H315.708V165.936H309.708ZM312.708 213H297.42V219H312.708V213ZM300.42 216V123.936H294.42V216H300.42ZM297.42 126.936H312.708V120.936H297.42V126.936ZM309.708 123.936V138.888H315.708V123.936H309.708ZM439.388 123.936L442.165 125.073L443.858 120.936H439.388V123.936ZM383.948 259.344V262.344H385.962L386.725 260.481L383.948 259.344ZM368.156 259.344L365.38 258.208L363.688 262.344H368.156V259.344ZM386.3 214.992L389.077 216.128L389.541 214.994L389.078 213.859L386.3 214.992ZM349.172 123.936V120.936H344.709L346.394 125.069L349.172 123.936ZM366.14 123.936L368.938 122.852L368.195 120.936H366.14V123.936ZM395.036 198.528L392.239 199.612L395.053 206.875L397.838 199.601L395.036 198.528ZM423.596 123.936V120.936H421.533L420.795 122.863L423.596 123.936ZM436.612 122.799L381.172 258.207L386.725 260.481L442.165 125.073L436.612 122.799ZM383.948 256.344H368.156V262.344H383.948V256.344ZM370.933 260.48L389.077 216.128L383.524 213.856L365.38 258.208L370.933 260.48ZM389.078 213.859L351.95 122.803L346.394 125.069L383.522 216.125L389.078 213.859ZM349.172 126.936H366.14V120.936H349.172V126.936ZM363.343 125.02L392.239 199.612L397.834 197.444L368.938 122.852L363.343 125.02ZM397.838 199.601L426.398 125.009L420.795 122.863L392.235 197.455L397.838 199.601ZM423.596 126.936H439.388V120.936H423.596V126.936ZM514.833 111.336V108.336H511.833V111.336H514.833ZM514.833 150.48H511.833V153.48H514.833V150.48ZM557.505 150.48H560.505V147.48H557.505V150.48ZM557.505 163.08V166.08H560.505V163.08H557.505ZM514.833 163.08V160.08H511.833V163.08H514.833ZM514.833 203.4H511.833V206.4H514.833V203.4ZM562.545 203.4H565.545V200.4H562.545V203.4ZM562.545 216V219H565.545V216H562.545ZM499.545 216H496.545V219H499.545V216ZM499.545 98.736V95.736H496.545V98.736H499.545ZM562.545 98.736H565.545V95.736H562.545V98.736ZM562.545 111.336V114.336H565.545V111.336H562.545ZM511.833 111.336V150.48H517.833V111.336H511.833ZM514.833 153.48H557.505V147.48H514.833V153.48ZM554.505 150.48V163.08H560.505V150.48H554.505ZM557.505 160.08H514.833V166.08H557.505V160.08ZM511.833 163.08V203.4H517.833V163.08H511.833ZM514.833 206.4H562.545V200.4H514.833V206.4ZM559.545 203.4V216H565.545V203.4H559.545ZM562.545 213H499.545V219H562.545V213ZM502.545 216V98.736H496.545V216H502.545ZM499.545 101.736H562.545V95.736H499.545V101.736ZM559.545 98.736V111.336H565.545V98.736H559.545ZM562.545 108.336H514.833V114.336H562.545V108.336ZM585.678 144.936L588.318 146.361L588.323 146.352L588.328 146.343L585.678 144.936ZM601.302 128.304L599.791 125.713L599.781 125.718L599.772 125.724L601.302 128.304ZM643.806 127.464L642.37 130.098L642.388 130.108L642.407 130.118L643.806 127.464ZM657.918 140.4L655.35 141.951L660.918 151.167V140.4H657.918ZM657.918 91.68V88.68H654.918V91.68H657.918ZM673.374 91.68H676.374V88.68H673.374V91.68ZM673.374 216V219H676.374V216H673.374ZM657.918 216H654.918V219H657.918V216ZM657.918 198.696H660.918L655.291 197.248L657.918 198.696ZM644.478 212.304L645.993 214.894L646.011 214.883L646.029 214.872L644.478 212.304ZM601.302 211.464L599.74 214.025L599.749 214.031L599.759 214.036L601.302 211.464ZM585.678 194.496L588.336 193.105L585.678 194.496ZM642.294 139.896L640.76 142.474L640.796 142.495L640.832 142.516L642.294 139.896ZM611.046 139.728L609.558 137.123L611.046 139.728ZM599.79 151.488L602.426 152.921L599.79 151.488ZM599.79 188.112L597.142 189.521L597.148 189.533L597.154 189.545L599.79 188.112ZM611.046 200.04L609.512 202.618L609.535 202.632L609.558 202.645L611.046 200.04ZM642.294 200.04L643.783 202.645L643.792 202.639L643.802 202.634L642.294 200.04ZM653.718 188.112L656.354 189.545L656.36 189.533L656.367 189.521L653.718 188.112ZM582.966 169.632C582.966 160.635 584.784 152.909 588.318 146.361L583.038 143.511C578.956 151.075 576.966 159.813 576.966 169.632H582.966ZM588.328 146.343C591.892 139.633 596.725 134.507 602.833 130.884L599.772 125.724C592.663 129.941 587.08 135.903 583.029 143.529L588.328 146.343ZM602.814 130.895C609.045 127.261 616.021 125.424 623.814 125.424V119.424C615.031 119.424 607 121.507 599.791 125.713L602.814 130.895ZM623.814 125.424C630.492 125.424 636.66 126.983 642.37 130.098L645.243 124.83C638.632 121.225 631.473 119.424 623.814 119.424V125.424ZM642.407 130.118C648.138 133.14 652.414 137.092 655.35 141.951L660.486 138.849C656.926 132.956 651.794 128.284 645.205 124.81L642.407 130.118ZM660.918 140.4V91.68H654.918V140.4H660.918ZM657.918 94.68H673.374V88.68H657.918V94.68ZM670.374 91.68V216H676.374V91.68H670.374ZM673.374 213H657.918V219H673.374V213ZM660.918 216V198.696H654.918V216H660.918ZM655.291 197.248C652.547 202.227 648.462 206.394 642.928 209.736L646.029 214.872C652.367 211.046 657.241 206.141 660.546 200.144L655.291 197.248ZM642.964 209.714C637.555 212.878 631.15 214.512 623.646 214.512V220.512C632.046 220.512 639.53 218.674 645.993 214.894L642.964 209.714ZM623.646 214.512C615.989 214.512 609.079 212.631 602.846 208.892L599.759 214.036C606.966 218.361 614.951 220.512 623.646 220.512V214.512ZM602.865 208.903C596.75 205.172 591.908 199.934 588.336 193.105L583.02 195.886C587.064 203.618 592.638 209.692 599.74 214.025L602.865 208.903ZM588.336 193.105C584.781 186.308 582.966 178.508 582.966 169.632H576.966C576.966 179.348 578.959 188.124 583.02 195.886L588.336 193.105ZM660.918 169.8C660.918 162.448 659.433 155.89 656.354 150.223L651.082 153.089C653.603 157.726 654.918 163.264 654.918 169.8H660.918ZM656.354 150.223C653.301 144.606 649.1 140.259 643.756 137.276L640.832 142.516C645.121 144.909 648.535 148.402 651.082 153.089L656.354 150.223ZM643.829 137.318C638.64 134.23 632.898 132.696 626.67 132.696V138.696C631.867 138.696 636.541 139.962 640.76 142.474L643.829 137.318ZM626.67 132.696C620.466 132.696 614.74 134.162 609.558 137.123L612.535 142.333C616.76 139.918 621.451 138.696 626.67 138.696V132.696ZM609.558 137.123C604.33 140.111 600.198 144.456 597.154 150.055L602.426 152.921C604.983 148.216 608.354 144.721 612.535 142.333L609.558 137.123ZM597.154 150.055C594.075 155.722 592.59 162.28 592.59 169.632H598.59C598.59 163.096 599.905 157.558 602.426 152.921L597.154 150.055ZM592.59 169.632C592.59 177.089 594.072 183.75 597.142 189.521L602.439 186.703C599.908 181.946 598.59 176.287 598.59 169.632H592.59ZM597.154 189.545C600.193 195.135 604.311 199.522 609.512 202.618L612.581 197.462C608.373 194.958 604.988 191.393 602.426 186.679L597.154 189.545ZM609.558 202.645C614.74 205.606 620.466 207.072 626.67 207.072V201.072C621.451 201.072 616.76 199.85 612.535 197.435L609.558 202.645ZM626.67 207.072C632.875 207.072 638.6 205.606 643.783 202.645L640.806 197.435C636.58 199.85 631.89 201.072 626.67 201.072V207.072ZM643.802 202.634C649.119 199.542 653.306 195.153 656.354 189.545L651.082 186.679C648.53 191.375 645.102 194.938 640.786 197.446L643.802 202.634ZM656.367 189.521C659.433 183.757 660.918 177.154 660.918 169.8H654.918C654.918 176.334 653.604 181.939 651.07 186.703L656.367 189.521ZM699.713 105.96L701.835 103.839L699.713 105.96ZM699.713 91.176L701.835 93.2973L699.713 91.176ZM714.161 91.176L711.98 93.2359L712.01 93.267L712.04 93.2973L714.161 91.176ZM714.161 105.96L712.04 103.839L712.01 103.869L711.98 103.9L714.161 105.96ZM714.497 123.936H717.497V120.936H714.497V123.936ZM714.497 216V219H717.497V216H714.497ZM699.209 216H696.209V219H699.209V216ZM699.209 123.936V120.936H696.209V123.936H699.209ZM707.105 105.984C704.97 105.984 703.275 105.279 701.835 103.839L697.592 108.081C700.184 110.673 703.417 111.984 707.105 111.984V105.984ZM701.835 103.839C700.395 102.399 699.689 100.703 699.689 98.568H693.689C693.689 102.257 695 105.489 697.592 108.081L701.835 103.839ZM699.689 98.568C699.689 96.4326 700.395 94.7374 701.835 93.2973L697.592 89.0547C695 91.6466 693.689 94.8794 693.689 98.568H699.689ZM701.835 93.2973C703.275 91.8573 704.97 91.152 707.105 91.152V85.152C703.417 85.152 700.184 86.4627 697.592 89.0547L701.835 93.2973ZM707.105 91.152C709.089 91.152 710.649 91.8265 711.98 93.2359L716.342 89.1161C713.866 86.4935 710.722 85.152 707.105 85.152V91.152ZM712.04 93.2973C713.48 94.7374 714.185 96.4326 714.185 98.568H720.185C720.185 94.8794 718.875 91.6466 716.283 89.0547L712.04 93.2973ZM714.185 98.568C714.185 100.703 713.48 102.399 712.04 103.839L716.283 108.081C718.875 105.489 720.185 102.257 720.185 98.568H714.185ZM711.98 103.9C710.649 105.309 709.089 105.984 707.105 105.984V111.984C710.722 111.984 713.866 110.643 716.342 108.02L711.98 103.9ZM711.497 123.936V216H717.497V123.936H711.497ZM714.497 213H699.209V219H714.497V213ZM702.209 216V123.936H696.209V216H702.209ZM699.209 126.936H714.497V120.936H699.209V126.936ZM759.201 136.536V133.536H756.201V136.536H759.201ZM762.057 200.376L759.936 202.497L759.968 202.529L760.001 202.561L762.057 200.376ZM783.225 203.064H786.225V200.064H783.225V203.064ZM783.225 216V219H786.225V216H783.225ZM743.913 136.536H746.913V133.536H743.913V136.536ZM731.985 136.536H728.985V139.536H731.985V136.536ZM731.985 123.936V120.936H728.985V123.936H731.985ZM743.913 123.936V126.936H746.913V123.936H743.913ZM743.913 100.752V97.752H740.913V100.752H743.913ZM759.201 100.752H762.201V97.752H759.201V100.752ZM759.201 123.936H756.201V126.936H759.201V123.936ZM783.225 123.936H786.225V120.936H783.225V123.936ZM783.225 136.536V139.536H786.225V136.536H783.225ZM756.201 136.536V190.8H762.201V136.536H756.201ZM756.201 190.8C756.201 195.576 757.194 199.755 759.936 202.497L764.179 198.255C763.112 197.189 762.201 194.984 762.201 190.8H756.201ZM760.001 202.561C762.764 205.161 767.054 206.064 771.969 206.064V200.064C767.476 200.064 765.158 199.175 764.113 198.191L760.001 202.561ZM771.969 206.064H783.225V200.064H771.969V206.064ZM780.225 203.064V216H786.225V203.064H780.225ZM783.225 213H769.449V219H783.225V213ZM769.449 213C761.341 213 755.82 211.128 752.33 207.913L748.265 212.327C753.287 216.952 760.533 219 769.449 219V213ZM752.33 207.913C748.96 204.81 746.913 199.376 746.913 190.8H740.913C740.913 200.144 743.123 207.59 748.265 212.327L752.33 207.913ZM746.913 190.8V136.536H740.913V190.8H746.913ZM743.913 133.536H731.985V139.536H743.913V133.536ZM734.985 136.536V123.936H728.985V136.536H734.985ZM731.985 126.936H743.913V120.936H731.985V126.936ZM746.913 123.936V100.752H740.913V123.936H746.913ZM743.913 103.752H759.201V97.752H743.913V103.752ZM756.201 100.752V123.936H762.201V100.752H756.201ZM759.201 126.936H783.225V120.936H759.201V126.936ZM780.225 123.936V136.536H786.225V123.936H780.225ZM783.225 133.536H759.201V139.536H783.225V133.536Z" fill="#D9D9D9" mask="url(#path-6-outside-1_5_2)"/>
</svg>
