<svg width="250" height="250" viewBox="0 0 151 151" fill="none" xmlns="http://www.w3.org/2000/svg">
<circle cx="75.434" cy="75.4906" r="75" fill="#D9D9D9"/>
<path d="M113.511 104.337V133.567C123.787 126.395 132.077 116.27 137.357 104.337H113.511Z" fill="#257FD2"/>
<path d="M113.511 82.7983H143.903C144.135 80.4025 144.28 77.9468 144.28 75.4911C144.28 50.8743 132.042 29.2223 113.511 16.6444V82.7983Z" fill="#257FD2"/>
<path d="M86.6817 104.427H33.3015V84.6342C35.9147 79.3031 39.2032 73.2946 43.1084 66.5791C47.0429 59.8637 51.4179 52.9716 56.2332 45.9027C61.0486 38.8338 66.1283 31.9122 71.5015 25.1379C76.7867 18.4519 82.0719 12.4139 87.357 7.0239C83.3051 6.28755 79.1063 5.8752 74.8488 5.8752C36.7368 5.84575 5.81857 36.8604 5.81857 75.0912C5.81857 113.322 36.7368 144.337 74.8488 144.337C78.8714 144.337 82.8353 143.983 86.6817 143.306V104.398V104.427Z" fill="#257FD2"/>
<path d="M57.3571 82.029H88.1263V35.8752C83.0357 42.5862 77.6229 49.867 71.8556 57.7809C66.1206 65.6631 61.2878 73.7669 57.3571 82.029Z" fill="#257FD2"/>
</svg>
