<svg width="903" height="283" viewBox="0 0 903 283" fill="none" xmlns="http://www.w3.org/2000/svg">
<circle cx="456.5" cy="141.5" r="141.5" fill="#D9D9D9"/>
<path d="M528.339 195.923V251.072C547.727 237.54 563.366 218.437 573.328 195.923H528.339Z" fill="#257FD2"/>
<path d="M528.339 155.287H585.679C586.116 150.767 586.39 146.134 586.39 141.501C586.39 95.0574 563.301 54.2073 528.339 30.477V155.287Z" fill="#257FD2"/>
<path d="M477.721 196.094H377.01V158.751C381.94 148.693 388.145 137.357 395.512 124.687C402.936 112.017 411.19 99.0142 420.275 85.6776C429.36 72.341 438.943 59.2822 449.081 46.5013C459.052 33.8871 469.023 22.4954 478.995 12.3263C471.35 10.9371 463.428 10.1591 455.396 10.1591C383.491 10.1035 325.159 68.6179 325.159 140.747C325.159 212.875 383.491 271.39 455.396 271.39C462.985 271.39 470.464 270.723 477.721 269.445V196.038V196.094Z" fill="#257FD2"/>
<path d="M422.395 153.836H480.446V66.759C470.842 79.4204 460.63 93.1568 449.749 108.088C438.929 122.959 429.811 138.248 422.395 153.836Z" fill="#257FD2"/>
<mask id="path-6-outside-1_1_39" maskUnits="userSpaceOnUse" x="9" y="94" width="885" height="169" fill="black">
<rect fill="white" x="9" y="94" width="885" height="169"/>
<path d="M28.224 111.336V150.48H70.896V163.08H28.224V203.4H75.936V216H12.936V98.736H75.936V111.336H28.224ZM133.341 201.888L161.901 123.936H178.197L142.077 216H124.269L88.1488 123.936H104.613L133.341 201.888ZM277.241 166.44C277.241 169.352 277.073 172.432 276.737 175.68H203.153C203.713 184.752 206.793 191.864 212.393 197.016C218.105 202.056 224.993 204.576 233.057 204.576C239.665 204.576 245.153 203.064 249.521 200.04C254.001 196.904 257.137 192.76 258.929 187.608H275.393C272.929 196.456 268.001 203.68 260.609 209.28C253.217 214.768 244.033 217.512 233.057 217.512C224.321 217.512 216.481 215.552 209.537 211.632C202.705 207.712 197.329 202.168 193.409 195C189.489 187.72 187.529 179.32 187.529 169.8C187.529 160.28 189.433 151.936 193.241 144.768C197.049 137.6 202.369 132.112 209.201 128.304C216.145 124.384 224.097 122.424 233.057 122.424C241.793 122.424 249.521 124.328 256.241 128.136C262.961 131.944 268.113 137.208 271.697 143.928C275.393 150.536 277.241 158.04 277.241 166.44ZM261.449 163.248C261.449 157.424 260.161 152.44 257.585 148.296C255.009 144.04 251.481 140.848 247.001 138.72C242.633 136.48 237.761 135.36 232.385 135.36C224.657 135.36 218.049 137.824 212.561 142.752C207.185 147.68 204.105 154.512 203.321 163.248H261.449ZM312.708 138.888C315.396 133.624 319.204 129.536 324.132 126.624C329.172 123.712 335.276 122.256 342.444 122.256V138.048H338.412C321.276 138.048 312.708 147.344 312.708 165.936V216H297.42V123.936H312.708V138.888ZM439.388 123.936L383.948 259.344H368.156L386.3 214.992L349.172 123.936H366.14L395.036 198.528L423.596 123.936H439.388ZM493.833 157.368C493.833 145.944 496.409 135.696 501.561 126.624C506.713 117.44 513.713 110.272 522.561 105.12C531.521 99.968 541.433 97.392 552.297 97.392C565.065 97.392 576.209 100.472 585.729 106.632C595.249 112.792 602.193 121.528 606.561 132.84H588.249C585.001 125.784 580.297 120.352 574.137 116.544C568.089 112.736 560.809 110.832 552.297 110.832C544.121 110.832 536.785 112.736 530.289 116.544C523.793 120.352 518.697 125.784 515.001 132.84C511.305 139.784 509.457 147.96 509.457 157.368C509.457 166.664 511.305 174.84 515.001 181.896C518.697 188.84 523.793 194.216 530.289 198.024C536.785 201.832 544.121 203.736 552.297 203.736C560.809 203.736 568.089 201.888 574.137 198.192C580.297 194.384 585.001 188.952 588.249 181.896H606.561C602.193 193.096 595.249 201.776 585.729 207.936C576.209 213.984 565.065 217.008 552.297 217.008C541.433 217.008 531.521 214.488 522.561 209.448C513.713 204.296 506.713 197.184 501.561 188.112C496.409 179.04 493.833 168.792 493.833 157.368ZM623.607 169.632C623.607 160.224 625.511 151.992 629.319 144.936C633.127 137.768 638.335 132.224 644.943 128.304C651.663 124.384 659.111 122.424 667.287 122.424C675.351 122.424 682.351 124.16 688.287 127.632C694.223 131.104 698.647 135.472 701.559 140.736V123.936H717.015V216H701.559V198.864C698.535 204.24 693.999 208.72 687.951 212.304C682.015 215.776 675.071 217.512 667.119 217.512C658.943 217.512 651.551 215.496 644.943 211.464C638.335 207.432 633.127 201.776 629.319 194.496C625.511 187.216 623.607 178.928 623.607 169.632ZM701.559 169.8C701.559 162.856 700.159 156.808 697.359 151.656C694.559 146.504 690.751 142.584 685.935 139.896C681.231 137.096 676.023 135.696 670.311 135.696C664.599 135.696 659.391 137.04 654.687 139.728C649.983 142.416 646.231 146.336 643.431 151.488C640.631 156.64 639.231 162.688 639.231 169.632C639.231 176.688 640.631 182.848 643.431 188.112C646.231 193.264 649.983 197.24 654.687 200.04C659.391 202.728 664.599 204.072 670.311 204.072C676.023 204.072 681.231 202.728 685.935 200.04C690.751 197.24 694.559 193.264 697.359 188.112C700.159 182.848 701.559 176.744 701.559 169.8ZM853.562 122.256C860.73 122.256 867.114 123.768 872.714 126.792C878.314 129.704 882.738 134.128 885.986 140.064C889.234 146 890.858 153.224 890.858 161.736V216H875.738V163.92C875.738 154.736 873.442 147.736 868.85 142.92C864.37 137.992 858.266 135.528 850.538 135.528C842.586 135.528 836.258 138.104 831.554 143.256C826.85 148.296 824.498 155.632 824.498 165.264V216H809.378V163.92C809.378 154.736 807.082 147.736 802.49 142.92C798.01 137.992 791.906 135.528 784.178 135.528C776.226 135.528 769.898 138.104 765.194 143.256C760.49 148.296 758.138 155.632 758.138 165.264V216H742.85V123.936H758.138V137.208C761.162 132.392 765.194 128.696 770.234 126.12C775.386 123.544 781.042 122.256 787.202 122.256C794.93 122.256 801.762 123.992 807.698 127.464C813.634 130.936 818.058 136.032 820.97 142.752C823.546 136.256 827.802 131.216 833.738 127.632C839.674 124.048 846.282 122.256 853.562 122.256Z"/>
</mask>
<path d="M28.224 111.336V150.48H70.896V163.08H28.224V203.4H75.936V216H12.936V98.736H75.936V111.336H28.224ZM133.341 201.888L161.901 123.936H178.197L142.077 216H124.269L88.1488 123.936H104.613L133.341 201.888ZM277.241 166.44C277.241 169.352 277.073 172.432 276.737 175.68H203.153C203.713 184.752 206.793 191.864 212.393 197.016C218.105 202.056 224.993 204.576 233.057 204.576C239.665 204.576 245.153 203.064 249.521 200.04C254.001 196.904 257.137 192.76 258.929 187.608H275.393C272.929 196.456 268.001 203.68 260.609 209.28C253.217 214.768 244.033 217.512 233.057 217.512C224.321 217.512 216.481 215.552 209.537 211.632C202.705 207.712 197.329 202.168 193.409 195C189.489 187.72 187.529 179.32 187.529 169.8C187.529 160.28 189.433 151.936 193.241 144.768C197.049 137.6 202.369 132.112 209.201 128.304C216.145 124.384 224.097 122.424 233.057 122.424C241.793 122.424 249.521 124.328 256.241 128.136C262.961 131.944 268.113 137.208 271.697 143.928C275.393 150.536 277.241 158.04 277.241 166.44ZM261.449 163.248C261.449 157.424 260.161 152.44 257.585 148.296C255.009 144.04 251.481 140.848 247.001 138.72C242.633 136.48 237.761 135.36 232.385 135.36C224.657 135.36 218.049 137.824 212.561 142.752C207.185 147.68 204.105 154.512 203.321 163.248H261.449ZM312.708 138.888C315.396 133.624 319.204 129.536 324.132 126.624C329.172 123.712 335.276 122.256 342.444 122.256V138.048H338.412C321.276 138.048 312.708 147.344 312.708 165.936V216H297.42V123.936H312.708V138.888ZM439.388 123.936L383.948 259.344H368.156L386.3 214.992L349.172 123.936H366.14L395.036 198.528L423.596 123.936H439.388ZM493.833 157.368C493.833 145.944 496.409 135.696 501.561 126.624C506.713 117.44 513.713 110.272 522.561 105.12C531.521 99.968 541.433 97.392 552.297 97.392C565.065 97.392 576.209 100.472 585.729 106.632C595.249 112.792 602.193 121.528 606.561 132.84H588.249C585.001 125.784 580.297 120.352 574.137 116.544C568.089 112.736 560.809 110.832 552.297 110.832C544.121 110.832 536.785 112.736 530.289 116.544C523.793 120.352 518.697 125.784 515.001 132.84C511.305 139.784 509.457 147.96 509.457 157.368C509.457 166.664 511.305 174.84 515.001 181.896C518.697 188.84 523.793 194.216 530.289 198.024C536.785 201.832 544.121 203.736 552.297 203.736C560.809 203.736 568.089 201.888 574.137 198.192C580.297 194.384 585.001 188.952 588.249 181.896H606.561C602.193 193.096 595.249 201.776 585.729 207.936C576.209 213.984 565.065 217.008 552.297 217.008C541.433 217.008 531.521 214.488 522.561 209.448C513.713 204.296 506.713 197.184 501.561 188.112C496.409 179.04 493.833 168.792 493.833 157.368ZM623.607 169.632C623.607 160.224 625.511 151.992 629.319 144.936C633.127 137.768 638.335 132.224 644.943 128.304C651.663 124.384 659.111 122.424 667.287 122.424C675.351 122.424 682.351 124.16 688.287 127.632C694.223 131.104 698.647 135.472 701.559 140.736V123.936H717.015V216H701.559V198.864C698.535 204.24 693.999 208.72 687.951 212.304C682.015 215.776 675.071 217.512 667.119 217.512C658.943 217.512 651.551 215.496 644.943 211.464C638.335 207.432 633.127 201.776 629.319 194.496C625.511 187.216 623.607 178.928 623.607 169.632ZM701.559 169.8C701.559 162.856 700.159 156.808 697.359 151.656C694.559 146.504 690.751 142.584 685.935 139.896C681.231 137.096 676.023 135.696 670.311 135.696C664.599 135.696 659.391 137.04 654.687 139.728C649.983 142.416 646.231 146.336 643.431 151.488C640.631 156.64 639.231 162.688 639.231 169.632C639.231 176.688 640.631 182.848 643.431 188.112C646.231 193.264 649.983 197.24 654.687 200.04C659.391 202.728 664.599 204.072 670.311 204.072C676.023 204.072 681.231 202.728 685.935 200.04C690.751 197.24 694.559 193.264 697.359 188.112C700.159 182.848 701.559 176.744 701.559 169.8ZM853.562 122.256C860.73 122.256 867.114 123.768 872.714 126.792C878.314 129.704 882.738 134.128 885.986 140.064C889.234 146 890.858 153.224 890.858 161.736V216H875.738V163.92C875.738 154.736 873.442 147.736 868.85 142.92C864.37 137.992 858.266 135.528 850.538 135.528C842.586 135.528 836.258 138.104 831.554 143.256C826.85 148.296 824.498 155.632 824.498 165.264V216H809.378V163.92C809.378 154.736 807.082 147.736 802.49 142.92C798.01 137.992 791.906 135.528 784.178 135.528C776.226 135.528 769.898 138.104 765.194 143.256C760.49 148.296 758.138 155.632 758.138 165.264V216H742.85V123.936H758.138V137.208C761.162 132.392 765.194 128.696 770.234 126.12C775.386 123.544 781.042 122.256 787.202 122.256C794.93 122.256 801.762 123.992 807.698 127.464C813.634 130.936 818.058 136.032 820.97 142.752C823.546 136.256 827.802 131.216 833.738 127.632C839.674 124.048 846.282 122.256 853.562 122.256Z" fill="#222222"/>
<path d="M28.224 111.336V108.336H25.224V111.336H28.224ZM28.224 150.48H25.224V153.48H28.224V150.48ZM70.896 150.48H73.896V147.48H70.896V150.48ZM70.896 163.08V166.08H73.896V163.08H70.896ZM28.224 163.08V160.08H25.224V163.08H28.224ZM28.224 203.4H25.224V206.4H28.224V203.4ZM75.936 203.4H78.936V200.4H75.936V203.4ZM75.936 216V219H78.936V216H75.936ZM12.936 216H9.936V219H12.936V216ZM12.936 98.736V95.736H9.936V98.736H12.936ZM75.936 98.736H78.936V95.736H75.936V98.736ZM75.936 111.336V114.336H78.936V111.336H75.936ZM25.224 111.336V150.48H31.224V111.336H25.224ZM28.224 153.48H70.896V147.48H28.224V153.48ZM67.896 150.48V163.08H73.896V150.48H67.896ZM70.896 160.08H28.224V166.08H70.896V160.08ZM25.224 163.08V203.4H31.224V163.08H25.224ZM28.224 206.4H75.936V200.4H28.224V206.4ZM72.936 203.4V216H78.936V203.4H72.936ZM75.936 213H12.936V219H75.936V213ZM15.936 216V98.736H9.936V216H15.936ZM12.936 101.736H75.936V95.736H12.936V101.736ZM72.936 98.736V111.336H78.936V98.736H72.936ZM75.936 108.336H28.224V114.336H75.936V108.336ZM133.341 201.888L130.526 202.925L133.349 210.586L136.158 202.92L133.341 201.888ZM161.901 123.936V120.936H159.805L159.084 122.904L161.901 123.936ZM178.197 123.936L180.99 125.032L182.596 120.936H178.197V123.936ZM142.077 216V219H144.122L144.87 217.096L142.077 216ZM124.269 216L121.476 217.096L122.223 219H124.269V216ZM88.1488 123.936V120.936H83.7492L85.3561 125.032L88.1488 123.936ZM104.613 123.936L107.428 122.899L106.704 120.936H104.613V123.936ZM136.158 202.92L164.718 124.968L159.084 122.904L130.524 200.856L136.158 202.92ZM161.901 126.936H178.197V120.936H161.901V126.936ZM175.404 122.84L139.284 214.904L144.87 217.096L180.99 125.032L175.404 122.84ZM142.077 213H124.269V219H142.077V213ZM127.062 214.904L90.9416 122.84L85.3561 125.032L121.476 217.096L127.062 214.904ZM88.1488 126.936H104.613V120.936H88.1488V126.936ZM101.798 124.973L130.526 202.925L136.156 200.851L107.428 122.899L101.798 124.973ZM276.737 175.68V178.68H279.442L279.721 175.989L276.737 175.68ZM203.153 175.68V172.68H199.962L200.158 175.865L203.153 175.68ZM212.393 197.016L210.362 199.224L210.384 199.245L210.408 199.266L212.393 197.016ZM249.521 200.04L251.228 202.507L251.235 202.502L251.241 202.498L249.521 200.04ZM258.929 187.608V184.608H256.796L256.095 186.622L258.929 187.608ZM275.393 187.608L278.283 188.413L279.342 184.608H275.393V187.608ZM260.609 209.28L262.397 211.689L262.409 211.68L262.42 211.671L260.609 209.28ZM209.537 211.632L208.044 214.234L208.053 214.239L208.062 214.244L209.537 211.632ZM193.409 195L190.767 196.422L190.772 196.431L190.777 196.439L193.409 195ZM193.241 144.768L195.89 146.175L193.241 144.768ZM209.201 128.304L210.661 130.924L210.668 130.92L210.675 130.916L209.201 128.304ZM256.241 128.136L254.762 130.746L256.241 128.136ZM271.697 143.928L269.05 145.34L269.064 145.366L269.078 145.392L271.697 143.928ZM261.449 163.248V166.248H264.449V163.248H261.449ZM257.585 148.296L255.018 149.849L255.027 149.865L255.037 149.88L257.585 148.296ZM247.001 138.72L245.632 141.389L245.672 141.41L245.714 141.43L247.001 138.72ZM212.561 142.752L210.556 140.52L210.545 140.53L210.534 140.541L212.561 142.752ZM203.321 163.248L200.333 162.98L200.039 166.248H203.321V163.248ZM274.241 166.44C274.241 169.237 274.079 172.214 273.753 175.371L279.721 175.989C280.066 172.65 280.241 169.467 280.241 166.44H274.241ZM276.737 172.68H203.153V178.68H276.737V172.68ZM200.158 175.865C200.756 185.55 204.083 193.448 210.362 199.224L214.424 194.808C209.502 190.28 206.669 183.954 206.147 175.495L200.158 175.865ZM210.408 199.266C216.702 204.819 224.308 207.576 233.057 207.576V201.576C225.677 201.576 219.507 199.293 214.378 194.766L210.408 199.266ZM233.057 207.576C240.125 207.576 246.248 205.954 251.228 202.507L247.813 197.573C244.057 200.174 239.204 201.576 233.057 201.576V207.576ZM251.241 202.498C256.236 199.001 259.762 194.343 261.762 188.594L256.095 186.622C254.511 191.177 251.765 194.807 247.8 197.582L251.241 202.498ZM258.929 190.608H275.393V184.608H258.929V190.608ZM272.503 186.803C270.217 195.012 265.671 201.681 258.797 206.889L262.42 211.671C270.33 205.679 275.641 197.9 278.283 188.413L272.503 186.803ZM258.82 206.871C252.039 211.906 243.516 214.512 233.057 214.512V220.512C244.549 220.512 254.394 217.63 262.397 211.689L258.82 206.871ZM233.057 214.512C224.787 214.512 217.463 212.662 211.011 209.02L208.062 214.244C215.498 218.442 223.855 220.512 233.057 220.512V214.512ZM211.03 209.03C204.696 205.396 199.706 200.262 196.041 193.561L190.777 196.439C194.952 204.074 200.714 210.028 208.044 214.234L211.03 209.03ZM196.05 193.578C192.399 186.797 190.529 178.899 190.529 169.8H184.529C184.529 179.741 186.578 188.643 190.767 196.422L196.05 193.578ZM190.529 169.8C190.529 160.686 192.349 152.841 195.89 146.175L190.591 143.361C186.516 151.031 184.529 159.874 184.529 169.8H190.529ZM195.89 146.175C199.438 139.498 204.354 134.44 210.661 130.924L207.74 125.684C200.384 129.784 194.66 135.702 190.591 143.361L195.89 146.175ZM210.675 130.916C217.116 127.281 224.548 125.424 233.057 125.424V119.424C223.645 119.424 215.173 121.487 207.726 125.692L210.675 130.916ZM233.057 125.424C241.343 125.424 248.549 127.226 254.762 130.746L257.72 125.526C250.492 121.43 242.242 119.424 233.057 119.424V125.424ZM254.762 130.746C260.994 134.278 265.737 139.129 269.05 145.34L274.344 142.516C270.488 135.287 264.927 129.61 257.72 125.526L254.762 130.746ZM269.078 145.392C272.498 151.505 274.241 158.495 274.241 166.44H280.241C280.241 157.585 278.288 149.567 274.315 142.464L269.078 145.392ZM264.449 163.248C264.449 156.974 263.057 151.417 260.133 146.712L255.037 149.88C257.264 153.463 258.449 157.874 258.449 163.248H264.449ZM260.151 146.743C257.272 141.986 253.3 138.391 248.288 136.01L245.714 141.43C249.661 143.305 252.745 146.094 255.018 149.849L260.151 146.743ZM248.37 136.051C243.539 133.573 238.191 132.36 232.385 132.36V138.36C237.331 138.36 241.727 139.387 245.632 141.389L248.37 136.051ZM232.385 132.36C223.955 132.36 216.623 135.072 210.556 140.52L214.565 144.984C219.474 140.576 225.358 138.36 232.385 138.36V132.36ZM210.534 140.541C204.499 146.072 201.169 153.658 200.333 162.98L206.309 163.516C207.04 155.366 209.871 149.288 214.588 144.963L210.534 140.541ZM203.321 166.248H261.449V160.248H203.321V166.248ZM312.708 138.888H309.708L315.38 140.252L312.708 138.888ZM324.132 126.624L322.632 124.026L322.619 124.034L322.606 124.041L324.132 126.624ZM342.444 122.256H345.444V119.256H342.444V122.256ZM342.444 138.048V141.048H345.444V138.048H342.444ZM312.708 216V219H315.708V216H312.708ZM297.42 216H294.42V219H297.42V216ZM297.42 123.936V120.936H294.42V123.936H297.42ZM312.708 123.936H315.708V120.936H312.708V123.936ZM315.38 140.252C317.818 135.477 321.237 131.82 325.659 129.207L322.606 124.041C317.172 127.252 312.974 131.771 310.037 137.524L315.38 140.252ZM325.633 129.222C330.122 126.628 335.682 125.256 342.444 125.256V119.256C334.871 119.256 328.222 120.796 322.632 124.026L325.633 129.222ZM339.444 122.256V138.048H345.444V122.256H339.444ZM342.444 135.048H338.412V141.048H342.444V135.048ZM338.412 135.048C329.316 135.048 321.961 137.527 316.928 142.987C311.938 148.401 309.708 156.235 309.708 165.936H315.708C315.708 157.044 317.762 150.935 321.34 147.053C324.876 143.217 330.372 141.048 338.412 141.048V135.048ZM309.708 165.936V216H315.708V165.936H309.708ZM312.708 213H297.42V219H312.708V213ZM300.42 216V123.936H294.42V216H300.42ZM297.42 126.936H312.708V120.936H297.42V126.936ZM309.708 123.936V138.888H315.708V123.936H309.708ZM439.388 123.936L442.165 125.073L443.858 120.936H439.388V123.936ZM383.948 259.344V262.344H385.962L386.725 260.481L383.948 259.344ZM368.156 259.344L365.38 258.208L363.688 262.344H368.156V259.344ZM386.3 214.992L389.077 216.128L389.541 214.994L389.078 213.859L386.3 214.992ZM349.172 123.936V120.936H344.709L346.394 125.069L349.172 123.936ZM366.14 123.936L368.938 122.852L368.195 120.936H366.14V123.936ZM395.036 198.528L392.239 199.612L395.053 206.875L397.838 199.601L395.036 198.528ZM423.596 123.936V120.936H421.533L420.795 122.863L423.596 123.936ZM436.612 122.799L381.172 258.207L386.725 260.481L442.165 125.073L436.612 122.799ZM383.948 256.344H368.156V262.344H383.948V256.344ZM370.933 260.48L389.077 216.128L383.524 213.856L365.38 258.208L370.933 260.48ZM389.078 213.859L351.95 122.803L346.394 125.069L383.522 216.125L389.078 213.859ZM349.172 126.936H366.14V120.936H349.172V126.936ZM363.343 125.02L392.239 199.612L397.834 197.444L368.938 122.852L363.343 125.02ZM397.838 199.601L426.398 125.009L420.795 122.863L392.235 197.455L397.838 199.601ZM423.596 126.936H439.388V120.936H423.596V126.936ZM501.561 126.624L504.17 128.105L504.174 128.099L504.178 128.092L501.561 126.624ZM522.561 105.12L521.066 102.519L521.059 102.523L521.052 102.527L522.561 105.12ZM585.729 106.632L587.359 104.113L585.729 106.632ZM606.561 132.84V135.84H610.936L609.36 131.759L606.561 132.84ZM588.249 132.84L585.524 134.094L586.328 135.84H588.249V132.84ZM574.137 116.544L572.539 119.083L572.549 119.089L572.56 119.096L574.137 116.544ZM530.289 116.544L531.807 119.132L530.289 116.544ZM515.001 132.84L517.65 134.25L517.654 134.241L517.659 134.232L515.001 132.84ZM515.001 181.896L512.344 183.288L512.349 183.297L512.353 183.306L515.001 181.896ZM530.289 198.024L531.807 195.436L530.289 198.024ZM574.137 198.192L575.702 200.752L575.708 200.748L575.715 200.744L574.137 198.192ZM588.249 181.896V178.896H586.328L585.524 180.642L588.249 181.896ZM606.561 181.896L609.356 182.986L610.951 178.896H606.561V181.896ZM585.729 207.936L587.338 210.468L587.349 210.462L587.359 210.455L585.729 207.936ZM522.561 209.448L521.052 212.041L521.071 212.052L521.091 212.063L522.561 209.448ZM501.561 188.112L504.17 186.631L501.561 188.112ZM496.833 157.368C496.833 146.413 499.298 136.684 504.17 128.105L498.953 125.143C493.52 134.708 490.833 145.475 490.833 157.368H496.833ZM504.178 128.092C509.076 119.361 515.699 112.587 524.071 107.713L521.052 102.527C511.727 107.957 504.351 115.519 498.945 125.156L504.178 128.092ZM524.057 107.721C532.538 102.844 541.93 100.392 552.297 100.392V94.392C540.936 94.392 530.505 97.0921 521.066 102.519L524.057 107.721ZM552.297 100.392C564.562 100.392 575.125 103.343 584.1 109.151L587.359 104.113C577.294 97.6007 565.568 94.392 552.297 94.392V100.392ZM584.1 109.151C593.05 114.942 599.606 123.156 603.763 133.921L609.36 131.759C604.781 119.9 597.449 110.642 587.359 104.113L584.1 109.151ZM606.561 129.84H588.249V135.84H606.561V129.84ZM590.975 131.586C587.499 124.034 582.414 118.133 575.715 113.992L572.56 119.096C578.181 122.571 582.504 127.534 585.524 134.094L590.975 131.586ZM575.736 114.005C569.124 109.843 561.266 107.832 552.297 107.832V113.832C560.353 113.832 567.054 115.629 572.539 119.083L575.736 114.005ZM552.297 107.832C543.635 107.832 535.767 109.855 528.772 113.956L531.807 119.132C537.803 115.617 544.607 113.832 552.297 113.832V107.832ZM528.772 113.956C521.763 118.065 516.285 123.924 512.344 131.448L517.659 134.232C521.11 127.644 525.824 122.639 531.807 119.132L528.772 113.956ZM512.353 131.43C508.385 138.886 506.457 147.564 506.457 157.368H512.457C512.457 148.356 514.226 140.682 517.65 134.25L512.353 131.43ZM506.457 157.368C506.457 167.068 508.388 175.736 512.344 183.288L517.659 180.504C514.223 173.944 512.457 166.26 512.457 157.368H506.457ZM512.353 183.306C516.298 190.717 521.776 196.511 528.772 200.612L531.807 195.436C525.811 191.921 521.097 186.963 517.65 180.486L512.353 183.306ZM528.772 200.612C535.767 204.713 543.635 206.736 552.297 206.736V200.736C544.607 200.736 537.803 198.951 531.807 195.436L528.772 200.612ZM552.297 206.736C561.25 206.736 569.096 204.789 575.702 200.752L572.573 195.632C567.083 198.987 560.369 200.736 552.297 200.736V206.736ZM575.715 200.744C582.414 196.603 587.499 190.702 590.975 183.15L585.524 180.642C582.504 187.202 578.181 192.165 572.56 195.64L575.715 200.744ZM588.249 184.896H606.561V178.896H588.249V184.896ZM603.766 180.806C599.613 191.457 593.058 199.621 584.1 205.417L587.359 210.455C597.441 203.931 604.774 194.735 609.356 182.986L603.766 180.806ZM584.121 205.404C575.143 211.107 564.573 214.008 552.297 214.008V220.008C565.558 220.008 577.276 216.861 587.338 210.468L584.121 205.404ZM552.297 214.008C541.918 214.008 532.517 211.606 524.032 206.833L521.091 212.063C530.525 217.37 540.948 220.008 552.297 220.008V214.008ZM524.071 206.855C515.69 201.975 509.065 195.251 504.17 186.631L498.953 189.593C504.361 199.117 511.737 206.617 521.052 212.041L524.071 206.855ZM504.17 186.631C499.298 178.052 496.833 168.323 496.833 157.368H490.833C490.833 169.261 493.52 180.028 498.953 189.593L504.17 186.631ZM629.319 144.936L631.959 146.361L631.964 146.352L631.968 146.343L629.319 144.936ZM644.943 128.304L643.431 125.713L643.422 125.718L643.412 125.724L644.943 128.304ZM688.287 127.632L686.772 130.222L688.287 127.632ZM701.559 140.736L698.934 142.188L704.559 140.736H701.559ZM701.559 123.936V120.936H698.559V123.936H701.559ZM717.015 123.936H720.015V120.936H717.015V123.936ZM717.015 216V219H720.015V216H717.015ZM701.559 216H698.559V219H701.559V216ZM701.559 198.864H704.559V187.411L698.944 197.393L701.559 198.864ZM687.951 212.304L689.465 214.894L689.473 214.889L689.48 214.885L687.951 212.304ZM644.943 211.464L643.38 214.025L644.943 211.464ZM629.319 194.496L631.977 193.105L629.319 194.496ZM685.935 139.896L684.4 142.474L684.436 142.495L684.473 142.516L685.935 139.896ZM654.687 139.728L653.198 137.123L654.687 139.728ZM643.431 151.488L646.067 152.921L643.431 151.488ZM643.431 188.112L640.782 189.521L640.789 189.533L640.795 189.545L643.431 188.112ZM654.687 200.04L653.152 202.618L653.175 202.632L653.198 202.645L654.687 200.04ZM685.935 200.04L687.423 202.645L687.433 202.639L687.443 202.634L685.935 200.04ZM697.359 188.112L699.995 189.545L700.001 189.533L700.007 189.521L697.359 188.112ZM626.607 169.632C626.607 160.635 628.425 152.909 631.959 146.361L626.679 143.511C622.597 151.075 620.607 159.813 620.607 169.632H626.607ZM631.968 146.343C635.533 139.633 640.366 134.507 646.473 130.884L643.412 125.724C636.304 129.941 630.721 135.903 626.669 143.529L631.968 146.343ZM646.454 130.895C652.692 127.257 659.614 125.424 667.287 125.424V119.424C658.608 119.424 650.634 121.511 643.431 125.713L646.454 130.895ZM667.287 125.424C674.911 125.424 681.37 127.062 686.772 130.222L689.801 125.042C683.332 121.258 675.79 119.424 667.287 119.424V125.424ZM686.772 130.222C692.31 133.461 696.318 137.461 698.934 142.188L704.184 139.284C700.975 133.483 696.135 128.747 689.801 125.042L686.772 130.222ZM704.559 140.736V123.936H698.559V140.736H704.559ZM701.559 126.936H717.015V120.936H701.559V126.936ZM714.015 123.936V216H720.015V123.936H714.015ZM717.015 213H701.559V219H717.015V213ZM704.559 216V198.864H698.559V216H704.559ZM698.944 197.393C696.213 202.249 692.081 206.369 686.421 209.723L689.48 214.885C695.917 211.071 700.857 206.231 704.174 200.335L698.944 197.393ZM686.436 209.714C681.027 212.878 674.623 214.512 667.119 214.512V220.512C675.519 220.512 683.002 218.674 689.465 214.894L686.436 209.714ZM667.119 214.512C659.462 214.512 652.616 212.632 646.505 208.903L643.38 214.025C650.486 218.36 658.424 220.512 667.119 220.512V214.512ZM646.505 208.903C640.391 205.172 635.549 199.934 631.977 193.105L626.661 195.886C630.705 203.618 636.279 209.692 643.38 214.025L646.505 208.903ZM631.977 193.105C628.422 186.308 626.607 178.508 626.607 169.632H620.607C620.607 179.348 622.6 188.124 626.661 195.886L631.977 193.105ZM704.559 169.8C704.559 162.448 703.074 155.89 699.995 150.223L694.723 153.089C697.244 157.726 698.559 163.264 698.559 169.8H704.559ZM699.995 150.223C696.942 144.606 692.74 140.259 687.397 137.276L684.473 142.516C688.761 144.909 692.176 148.402 694.723 153.089L699.995 150.223ZM687.469 137.318C682.281 134.23 676.538 132.696 670.311 132.696V138.696C675.507 138.696 680.181 139.962 684.4 142.474L687.469 137.318ZM670.311 132.696C664.106 132.696 658.381 134.162 653.198 137.123L656.175 142.333C660.401 139.918 665.091 138.696 670.311 138.696V132.696ZM653.198 137.123C647.971 140.111 643.838 144.456 640.795 150.055L646.067 152.921C648.623 148.216 651.995 144.721 656.175 142.333L653.198 137.123ZM640.795 150.055C637.716 155.722 636.231 162.28 636.231 169.632H642.231C642.231 163.096 643.546 157.558 646.067 152.921L640.795 150.055ZM636.231 169.632C636.231 177.089 637.713 183.75 640.782 189.521L646.079 186.703C643.549 181.946 642.231 176.287 642.231 169.632H636.231ZM640.795 189.545C643.833 195.135 647.952 199.522 653.152 202.618L656.221 197.462C652.014 194.958 648.628 191.393 646.067 186.679L640.795 189.545ZM653.198 202.645C658.381 205.606 664.106 207.072 670.311 207.072V201.072C665.091 201.072 660.401 199.85 656.175 197.435L653.198 202.645ZM670.311 207.072C676.515 207.072 682.241 205.606 687.423 202.645L684.446 197.435C680.221 199.85 675.53 201.072 670.311 201.072V207.072ZM687.443 202.634C692.759 199.542 696.947 195.153 699.995 189.545L694.723 186.679C692.171 191.375 688.742 194.938 684.427 197.446L687.443 202.634ZM700.007 189.521C703.073 183.757 704.559 177.154 704.559 169.8H698.559C698.559 176.334 697.244 181.939 694.71 186.703L700.007 189.521ZM872.714 126.792L871.289 129.432L871.309 129.443L871.33 129.454L872.714 126.792ZM885.986 140.064L883.354 141.504V141.504L885.986 140.064ZM890.858 216V219H893.858V216H890.858ZM875.738 216H872.738V219H875.738V216ZM868.85 142.92L866.63 144.938L866.654 144.964L866.679 144.99L868.85 142.92ZM831.554 143.256L833.747 145.303L833.758 145.291L833.77 145.279L831.554 143.256ZM824.498 216V219H827.498V216H824.498ZM809.378 216H806.378V219H809.378V216ZM802.49 142.92L800.27 144.938L800.294 144.964L800.319 144.99L802.49 142.92ZM765.194 143.256L767.387 145.303L767.398 145.291L767.41 145.279L765.194 143.256ZM758.138 216V219H761.138V216H758.138ZM742.85 216H739.85V219H742.85V216ZM742.85 123.936V120.936H739.85V123.936H742.85ZM758.138 123.936H761.138V120.936H758.138V123.936ZM758.138 137.208H755.138V147.627L760.679 138.803L758.138 137.208ZM770.234 126.12L768.892 123.437L768.881 123.443L768.869 123.449L770.234 126.12ZM807.698 127.464L806.183 130.054L807.698 127.464ZM820.97 142.752L818.217 143.945L821.093 150.581L823.759 143.858L820.97 142.752ZM833.738 127.632L835.289 130.2L833.738 127.632ZM853.562 125.256C860.296 125.256 866.179 126.673 871.289 129.432L874.14 124.152C868.049 120.863 861.164 119.256 853.562 119.256V125.256ZM871.33 129.454C876.364 132.071 880.37 136.05 883.354 141.504L888.618 138.624C885.106 132.206 880.265 127.337 874.098 124.13L871.33 129.454ZM883.354 141.504C886.306 146.899 887.858 153.6 887.858 161.736H893.858C893.858 152.848 892.162 145.101 888.618 138.624L883.354 141.504ZM887.858 161.736V216H893.858V161.736H887.858ZM890.858 213H875.738V219H890.858V213ZM878.738 216V163.92H872.738V216H878.738ZM878.738 163.92C878.738 154.262 876.32 146.407 871.021 140.85L866.679 144.99C870.564 149.065 872.738 155.21 872.738 163.92H878.738ZM871.07 140.902C865.928 135.246 858.962 132.528 850.538 132.528V138.528C857.57 138.528 862.812 140.738 866.63 144.938L871.07 140.902ZM850.538 132.528C841.873 132.528 834.693 135.369 829.339 141.233L833.77 145.279C837.823 140.839 843.299 138.528 850.538 138.528V132.528ZM829.361 141.209C823.963 146.992 821.498 155.175 821.498 165.264H827.498C827.498 156.089 829.737 149.6 833.747 145.303L829.361 141.209ZM821.498 165.264V216H827.498V165.264H821.498ZM824.498 213H809.378V219H824.498V213ZM812.378 216V163.92H806.378V216H812.378ZM812.378 163.92C812.378 154.262 809.96 146.407 804.661 140.85L800.319 144.99C804.204 149.065 806.378 155.21 806.378 163.92H812.378ZM804.71 140.902C799.568 135.246 792.602 132.528 784.178 132.528V138.528C791.21 138.528 796.452 140.738 800.27 144.938L804.71 140.902ZM784.178 132.528C775.513 132.528 768.333 135.369 762.979 141.233L767.41 145.279C771.463 140.839 776.939 138.528 784.178 138.528V132.528ZM763.001 141.209C757.603 146.992 755.138 155.175 755.138 165.264H761.138C761.138 156.089 763.377 149.6 767.387 145.303L763.001 141.209ZM755.138 165.264V216H761.138V165.264H755.138ZM758.138 213H742.85V219H758.138V213ZM745.85 216V123.936H739.85V216H745.85ZM742.85 126.936H758.138V120.936H742.85V126.936ZM755.138 123.936V137.208H761.138V123.936H755.138ZM760.679 138.803C763.417 134.443 767.043 131.12 771.599 128.791L768.869 123.449C763.345 126.272 758.908 130.341 755.597 135.613L760.679 138.803ZM771.576 128.803C776.283 126.45 781.475 125.256 787.202 125.256V119.256C780.609 119.256 774.49 120.638 768.892 123.437L771.576 128.803ZM787.202 125.256C794.465 125.256 800.762 126.882 806.183 130.054L809.213 124.874C802.762 121.102 795.395 119.256 787.202 119.256V125.256ZM806.183 130.054C811.532 133.182 815.542 137.77 818.217 143.945L823.723 141.559C820.575 134.294 815.736 128.69 809.213 124.874L806.183 130.054ZM823.759 143.858C826.095 137.966 829.919 133.442 835.289 130.2L832.187 125.064C825.685 128.99 820.997 134.546 818.181 141.646L823.759 143.858ZM835.289 130.2C840.733 126.913 846.8 125.256 853.562 125.256V119.256C845.764 119.256 838.615 121.183 832.187 125.064L835.289 130.2Z" fill="#D9D9D9" mask="url(#path-6-outside-1_1_39)"/>
</svg>
